<svg width="140" height="8" viewBox="0 0 140 8" fill="none" xmlns="http://www.w3.org/2000/svg">
<path d="M4.55768 4.45455H1.08976V7.89305H0V0.106952H5.11958V0.951872H1.08976V3.61497H4.55768V4.45455Z" fill="#151515"/>
<path d="M7.63669 7.05348H11.553V7.89305H6.54126V0.106952H7.63669V7.05348Z" fill="#151515"/>
<path d="M14.0701 4.01604L16.2269 0.106952H17.4642L14.615 4.98931V7.89305H13.5252V4.98931L10.676 0.106952H11.9247L14.0701 4.01604Z" fill="#151515"/>
<path d="M19.8168 7.89305H18.727V0.106952H19.8168V7.89305Z" fill="#151515"/>
<path d="M28.2821 7.89305H27.1867L23.0263 1.89305V7.89305H21.9309V0.106952H23.0263L27.198 6.13369V0.106952H28.2821V7.89305Z" fill="#151515"/>
<path d="M36.4353 6.87166C36.1553 7.24955 35.7637 7.53298 35.2604 7.72193C34.7609 7.90731 34.1782 8 33.5123 8C32.8387 8 32.2409 7.85205 31.7187 7.55615C31.1965 7.25668 30.7917 6.83244 30.5041 6.28342C30.2203 5.7344 30.0746 5.09804 30.067 4.37433V3.69519C30.067 2.52228 30.3565 1.61319 30.9354 0.967914C31.5182 0.322638 32.3355 0 33.3874 0C34.2501 0 34.9445 0.208556 35.4704 0.625668C35.9964 1.03922 36.318 1.62745 36.4353 2.39037H35.3455C35.1412 1.36007 34.4904 0.84492 33.3931 0.84492C32.6628 0.84492 32.1084 1.08734 31.7301 1.57219C31.3554 2.05348 31.1663 2.75223 31.1625 3.66845V4.30481C31.1625 5.17825 31.3744 5.87344 31.7982 6.39037C32.222 6.90374 32.7952 7.16043 33.5179 7.16043C33.9266 7.16043 34.2842 7.11765 34.5907 7.03209C34.8972 6.94652 35.1507 6.80214 35.3512 6.59893V4.85027H33.4385V4.01604H36.4353V6.87166Z" fill="#151515"/>
<path d="M46.8559 0.951872H44.1996V7.89305H43.1155V0.951872H40.4649V0.106952H46.8559V0.951872Z" fill="#151515"/>
<path d="M51.229 4.74332H49.2878V7.89305H48.1924V0.106952H50.9281C51.859 0.106952 52.5741 0.306595 53.0736 0.705882C53.5769 1.10517 53.8285 1.68627 53.8285 2.4492C53.8285 2.93405 53.6885 3.35651 53.4085 3.71658C53.1322 4.07665 52.7463 4.34581 52.2506 4.52406L54.1917 7.82888V7.89305H53.0225L51.229 4.74332ZM49.2878 3.90374H50.9622C51.5033 3.90374 51.9328 3.77184 52.2506 3.50802C52.5722 3.24421 52.7331 2.89127 52.7331 2.4492C52.7331 1.96791 52.5798 1.59893 52.2733 1.34225C51.9706 1.08556 51.5317 0.955437 50.9565 0.951872H49.2878V3.90374Z" fill="#151515"/>
<path d="M60.0405 5.86096H56.5783L55.8007 7.89305H54.6769L57.8327 0.106952H58.7862L61.9476 7.89305H60.8295L60.0405 5.86096ZM56.9075 5.01604H59.717L58.3094 1.37433L56.9075 5.01604Z" fill="#151515"/>
<path d="M64.3455 7.89305H63.2558V0.106952H64.3455V7.89305Z" fill="#151515"/>
<path d="M72.8109 7.89305H71.7155L67.5551 1.89305V7.89305H66.4597V0.106952H67.5551L71.7268 6.13369V0.106952H72.8109V7.89305Z" fill="#151515"/>
<path d="M76.0318 7.89305H74.942V0.106952H76.0318V7.89305Z" fill="#151515"/>
<path d="M84.4972 7.89305H83.4017L79.2414 1.89305V7.89305H78.1459V0.106952H79.2414L83.4131 6.13369V0.106952H84.4972V7.89305Z" fill="#151515"/>
<path d="M92.6504 6.87166C92.3703 7.24955 91.9787 7.53298 91.4755 7.72193C90.976 7.90731 90.3933 8 89.7273 8C89.0538 8 88.4559 7.85205 87.9338 7.55615C87.4116 7.25668 87.0067 6.83244 86.7191 6.28342C86.4353 5.7344 86.2897 5.09804 86.2821 4.37433V3.69519C86.2821 2.52228 86.5716 1.61319 87.1505 0.967914C87.7332 0.322638 88.5505 0 89.6024 0C90.4652 0 91.1595 0.208556 91.6855 0.625668C92.2114 1.03922 92.5331 1.62745 92.6504 2.39037H91.5606C91.3563 1.36007 90.7054 0.84492 89.6081 0.84492C88.8778 0.84492 88.3235 1.08734 87.9451 1.57219C87.5705 2.05348 87.3813 2.75223 87.3775 3.66845V4.30481C87.3775 5.17825 87.5894 5.87344 88.0132 6.39037C88.437 6.90374 89.0103 7.16043 89.733 7.16043C90.1416 7.16043 90.4992 7.11765 90.8057 7.03209C91.1122 6.94652 91.3657 6.80214 91.5663 6.59893V4.85027H89.6535V4.01604H92.6504V6.87166Z" fill="#151515"/>
<path d="M103.667 5.42246C103.565 6.24599 103.241 6.88235 102.696 7.33155C102.155 7.77718 101.434 8 100.534 8C99.5576 8 98.7743 7.67023 98.184 7.0107C97.5975 6.35116 97.3043 5.46881 97.3043 4.36364V3.61497C97.3043 2.89127 97.4405 2.2549 97.7129 1.70588C97.9892 1.15686 98.3789 0.736185 98.8822 0.44385C99.3854 0.14795 99.9681 0 100.63 0C101.508 0 102.212 0.231729 102.742 0.695187C103.271 1.15508 103.58 1.79323 103.667 2.60963H102.571C102.477 1.9893 102.271 1.54011 101.953 1.26203C101.639 0.983957 101.198 0.84492 100.63 0.84492C99.9341 0.84492 99.3873 1.08734 98.99 1.57219C98.5965 2.05704 98.3997 2.74688 98.3997 3.64171V4.39572C98.3997 5.24064 98.587 5.91266 98.9616 6.41176C99.3362 6.91087 99.8603 7.16043 100.534 7.16043C101.139 7.16043 101.603 7.03209 101.924 6.7754C102.25 6.51515 102.465 6.06417 102.571 5.42246H103.667Z" fill="#151515"/>
<path d="M109.947 4.29412H106.366V7.05348H110.526V7.89305H105.276V0.106952H110.469V0.951872H106.366V3.45455H109.947V4.29412Z" fill="#151515"/>
<path d="M118.35 7.89305H117.255L113.094 1.89305V7.89305H111.999V0.106952H113.094L117.266 6.13369V0.106952H118.35V7.89305Z" fill="#151515"/>
<path d="M125.941 0.951872H123.285V7.89305H122.201V0.951872H119.55V0.106952H125.941V0.951872Z" fill="#151515"/>
<path d="M131.955 4.29412H128.373V7.05348H132.534V7.89305H127.283V0.106952H132.477V0.951872H128.373V3.45455H131.955V4.29412Z" fill="#151515"/>
<path d="M137.037 4.74332H135.096V7.89305H134.001V0.106952H136.736C137.667 0.106952 138.382 0.306595 138.882 0.705882C139.385 1.10517 139.637 1.68627 139.637 2.4492C139.637 2.93405 139.497 3.35651 139.217 3.71658C138.941 4.07665 138.555 4.34581 138.059 4.52406L140 7.82888V7.89305H138.831L137.037 4.74332ZM135.096 3.90374H136.77C137.312 3.90374 137.741 3.77184 138.059 3.50802C138.381 3.24421 138.541 2.89127 138.541 2.4492C138.541 1.96791 138.388 1.59893 138.082 1.34225C137.779 1.08556 137.34 0.955437 136.765 0.951872H135.096V3.90374Z" fill="#151515"/>
</svg>
