<svg width="141" height="13" viewBox="0 0 141 13" fill="none" xmlns="http://www.w3.org/2000/svg">
<path d="M10.108 2.28543H6.30682V12.8262H3.75V2.28543H0V0.173797H10.108V2.28543Z" fill="url(#paint0_linear_29_179)"/>
<path d="M20.9659 0.173797V8.50735C20.9659 9.89193 20.5398 10.9869 19.6875 11.7921C18.8409 12.5974 17.6818 13 16.2102 13C14.7614 13 13.6108 12.609 12.7585 11.8269C11.9062 11.0448 11.4716 9.97014 11.4545 8.60294V0.173797H14.0114V8.52473C14.0114 9.35316 14.2045 9.95856 14.5909 10.3409C14.983 10.7175 15.5227 10.9057 16.2102 10.9057C17.6477 10.9057 18.3778 10.1352 18.4006 8.59425V0.173797H20.9659Z" fill="url(#paint1_linear_29_179)"/>
<path d="M27.6562 8.19452H25.6193V12.8262H23.0625V0.173797H27.6733C29.1392 0.173797 30.2699 0.506907 31.0653 1.17313C31.8608 1.83935 32.2585 2.78075 32.2585 3.99733C32.2585 4.86052 32.0739 5.58177 31.7045 6.1611C31.3409 6.73463 30.7869 7.19229 30.0426 7.53409L32.7273 12.7045V12.8262H29.983L27.6562 8.19452ZM25.6193 6.08289H27.6818C28.3239 6.08289 28.821 5.91778 29.1733 5.58757C29.5256 5.25156 29.7017 4.791 29.7017 4.20588C29.7017 3.60918 29.5341 3.13993 29.1989 2.79813C28.8693 2.45633 28.3608 2.28543 27.6733 2.28543H25.6193V6.08289Z" fill="url(#paint2_linear_29_179)"/>
<path d="M38.0966 7.75134L36.767 9.21123V12.8262H34.2102V0.173797H36.767V5.90909L37.892 4.33623L41.054 0.173797H44.1989L39.7926 5.79612L44.3267 12.8262H41.2841L38.0966 7.75134Z" fill="url(#paint3_linear_29_179)"/>
<path d="M48.0085 12.8262H45.4517V0.173797H48.0085V12.8262Z" fill="url(#paint4_linear_29_179)"/>
<path d="M56.821 9.50668C56.821 9.01426 56.6506 8.6377 56.3097 8.37701C55.9688 8.11052 55.3551 7.83244 54.4688 7.54278C53.5824 7.24733 52.8807 6.95766 52.3636 6.6738C50.9545 5.8975 50.25 4.85183 50.25 3.53676C50.25 2.85316 50.4375 2.24488 50.8125 1.7119C51.1932 1.17313 51.7358 0.753119 52.4403 0.451872C53.1506 0.150624 53.946 0 54.8267 0C55.7131 0 56.5028 0.165107 57.196 0.495321C57.8892 0.819742 58.4261 1.2803 58.8068 1.87701C59.1932 2.47371 59.3864 3.15152 59.3864 3.91043H56.8295C56.8295 3.33111 56.6506 2.88213 56.2926 2.5635C55.9347 2.23908 55.4318 2.07687 54.7841 2.07687C54.1591 2.07687 53.6733 2.21301 53.3267 2.48529C52.9801 2.75178 52.8068 3.10517 52.8068 3.54545C52.8068 3.95677 53.0085 4.30147 53.4119 4.57955C53.821 4.85762 54.4205 5.11832 55.2102 5.36163C56.6648 5.80771 57.7244 6.36096 58.3892 7.02139C59.054 7.68182 59.3864 8.50446 59.3864 9.4893C59.3864 10.5842 58.9801 11.4445 58.1676 12.0702C57.3551 12.6901 56.2614 13 54.8864 13C53.9318 13 53.0625 12.8233 52.2784 12.4699C51.4943 12.1107 50.8949 11.6212 50.4801 11.0013C50.071 10.3815 49.8665 9.6631 49.8665 8.84626H52.4318C52.4318 10.2424 53.25 10.9405 54.8864 10.9405C55.4943 10.9405 55.9688 10.816 56.3097 10.5668C56.6506 10.3119 56.821 9.95856 56.821 9.50668Z" fill="url(#paint5_linear_29_179)"/>
<path d="M71.2244 12.8262H68.6676V7.40374H63.6818V12.8262H61.125V0.173797H63.6818V5.3008H68.6676V0.173797H71.2244V12.8262Z" fill="url(#paint6_linear_29_179)"/>
<path d="M84.8182 10.2193H80.3352L79.4829 12.8262H76.7642L81.3835 0.173797H83.7528L88.3977 12.8262H85.679L84.8182 10.2193ZM81.0256 8.10762H84.1278L82.5682 3.37166L81.0256 8.10762Z" fill="url(#paint7_linear_29_179)"/>
<path d="M92.2756 12.8262H89.7188V0.173797H92.2756V12.8262Z" fill="url(#paint8_linear_29_179)"/>
<path d="M99.2472 8.19452H97.2102V12.8262H94.6534V0.173797H99.2642C100.73 0.173797 101.861 0.506907 102.656 1.17313C103.452 1.83935 103.849 2.78075 103.849 3.99733C103.849 4.86052 103.665 5.58177 103.295 6.1611C102.932 6.73463 102.378 7.19229 101.634 7.53409L104.318 12.7045V12.8262H101.574L99.2472 8.19452ZM97.2102 6.08289H99.2727C99.9148 6.08289 100.412 5.91778 100.764 5.58757C101.116 5.25156 101.293 4.791 101.293 4.20588C101.293 3.60918 101.125 3.13993 100.79 2.79813C100.46 2.45633 99.9517 2.28543 99.2642 2.28543H97.2102V6.08289Z" fill="url(#paint9_linear_29_179)"/>
<path d="M108.358 10.732H113.787V12.8262H105.801V0.173797H108.358V10.732Z" fill="url(#paint10_linear_29_179)"/>
<path d="M117.98 12.8262H115.423V0.173797H117.98V12.8262Z" fill="url(#paint11_linear_29_179)"/>
<path d="M130.449 12.8262H127.892L122.915 4.50134V12.8262H120.358V0.173797H122.915L127.901 8.51604V0.173797H130.449V12.8262Z" fill="url(#paint12_linear_29_179)"/>
<path d="M140.148 7.34291H135.239V10.732H141V12.8262H132.682V0.173797H140.983V2.28543H135.239V5.3008H140.148V7.34291Z" fill="url(#paint13_linear_29_179)"/>
<defs>
<linearGradient id="paint0_linear_29_179" x1="141" y1="6.76" x2="1.02031e-06" y2="6.76002" gradientUnits="userSpaceOnUse">
<stop stop-color="#D73A46" stop-opacity="0.9"/>
<stop offset="1" stop-color="#D73A46"/>
</linearGradient>
<linearGradient id="paint1_linear_29_179" x1="141" y1="6.76" x2="1.02031e-06" y2="6.76002" gradientUnits="userSpaceOnUse">
<stop stop-color="#D73A46" stop-opacity="0.9"/>
<stop offset="1" stop-color="#D73A46"/>
</linearGradient>
<linearGradient id="paint2_linear_29_179" x1="141" y1="6.76" x2="1.02031e-06" y2="6.76002" gradientUnits="userSpaceOnUse">
<stop stop-color="#D73A46" stop-opacity="0.9"/>
<stop offset="1" stop-color="#D73A46"/>
</linearGradient>
<linearGradient id="paint3_linear_29_179" x1="141" y1="6.76" x2="1.02031e-06" y2="6.76002" gradientUnits="userSpaceOnUse">
<stop stop-color="#D73A46" stop-opacity="0.9"/>
<stop offset="1" stop-color="#D73A46"/>
</linearGradient>
<linearGradient id="paint4_linear_29_179" x1="141" y1="6.76" x2="1.02031e-06" y2="6.76002" gradientUnits="userSpaceOnUse">
<stop stop-color="#D73A46" stop-opacity="0.9"/>
<stop offset="1" stop-color="#D73A46"/>
</linearGradient>
<linearGradient id="paint5_linear_29_179" x1="141" y1="6.76" x2="1.02031e-06" y2="6.76002" gradientUnits="userSpaceOnUse">
<stop stop-color="#D73A46" stop-opacity="0.9"/>
<stop offset="1" stop-color="#D73A46"/>
</linearGradient>
<linearGradient id="paint6_linear_29_179" x1="141" y1="6.76" x2="1.02031e-06" y2="6.76002" gradientUnits="userSpaceOnUse">
<stop stop-color="#D73A46" stop-opacity="0.9"/>
<stop offset="1" stop-color="#D73A46"/>
</linearGradient>
<linearGradient id="paint7_linear_29_179" x1="141" y1="6.76" x2="1.02031e-06" y2="6.76002" gradientUnits="userSpaceOnUse">
<stop stop-color="#D73A46" stop-opacity="0.9"/>
<stop offset="1" stop-color="#D73A46"/>
</linearGradient>
<linearGradient id="paint8_linear_29_179" x1="141" y1="6.76" x2="1.02031e-06" y2="6.76002" gradientUnits="userSpaceOnUse">
<stop stop-color="#D73A46" stop-opacity="0.9"/>
<stop offset="1" stop-color="#D73A46"/>
</linearGradient>
<linearGradient id="paint9_linear_29_179" x1="141" y1="6.76" x2="1.02031e-06" y2="6.76002" gradientUnits="userSpaceOnUse">
<stop stop-color="#D73A46" stop-opacity="0.9"/>
<stop offset="1" stop-color="#D73A46"/>
</linearGradient>
<linearGradient id="paint10_linear_29_179" x1="141" y1="6.76" x2="1.02031e-06" y2="6.76002" gradientUnits="userSpaceOnUse">
<stop stop-color="#D73A46" stop-opacity="0.9"/>
<stop offset="1" stop-color="#D73A46"/>
</linearGradient>
<linearGradient id="paint11_linear_29_179" x1="141" y1="6.76" x2="1.02031e-06" y2="6.76002" gradientUnits="userSpaceOnUse">
<stop stop-color="#D73A46" stop-opacity="0.9"/>
<stop offset="1" stop-color="#D73A46"/>
</linearGradient>
<linearGradient id="paint12_linear_29_179" x1="141" y1="6.76" x2="1.02031e-06" y2="6.76002" gradientUnits="userSpaceOnUse">
<stop stop-color="#D73A46" stop-opacity="0.9"/>
<stop offset="1" stop-color="#D73A46"/>
</linearGradient>
<linearGradient id="paint13_linear_29_179" x1="141" y1="6.76" x2="1.02031e-06" y2="6.76002" gradientUnits="userSpaceOnUse">
<stop stop-color="#D73A46" stop-opacity="0.9"/>
<stop offset="1" stop-color="#D73A46"/>
</linearGradient>
</defs>
</svg>
